<svg width="438" height="136" viewBox="0 0 438 136" fill="none" xmlns="http://www.w3.org/2000/svg">
<path d="M4.42969 12V10.0137H0.28125V9.19336L4.36523 3.38672H5.37305V9.13477H6.65625V10.0137H5.37305V12H4.42969ZM4.42969 9.13477V6.33398C4.42969 6.04883 4.42969 5.79297 4.42969 5.56641C4.43359 5.33984 4.43945 5.13672 4.44727 4.95703C4.45508 4.77734 4.46484 4.61523 4.47656 4.4707H4.42969C4.34375 4.62695 4.23828 4.80273 4.11328 4.99805C3.98828 5.19336 3.87695 5.35938 3.7793 5.49609L1.24805 9.13477H4.42969ZM13.2246 7.70508C13.2246 8.40039 13.1719 9.02148 13.0664 9.56836C12.9609 10.1152 12.7949 10.5781 12.5684 10.957C12.3418 11.3359 12.0488 11.625 11.6895 11.8242C11.3301 12.0195 10.8984 12.1172 10.3945 12.1172C9.91406 12.1172 9.49609 12.0195 9.14062 11.8242C8.78906 11.625 8.49609 11.3379 8.26172 10.9629C8.03125 10.584 7.85938 10.1211 7.74609 9.57422C7.63281 9.02734 7.57617 8.4043 7.57617 7.70508C7.57617 6.78711 7.66797 6 7.85156 5.34375C8.03906 4.6875 8.33789 4.18359 8.74805 3.83203C9.16211 3.47656 9.71094 3.29883 10.3945 3.29883C11.043 3.29883 11.5742 3.47461 11.9883 3.82617C12.4062 4.17383 12.7168 4.67773 12.9199 5.33789C13.123 5.99414 13.2246 6.7832 13.2246 7.70508ZM8.55469 7.70508C8.55469 8.9043 8.69531 9.80078 8.97656 10.3945C9.26172 10.9883 9.73438 11.2852 10.3945 11.2852C11.0547 11.2852 11.5273 10.9902 11.8125 10.4004C12.0977 9.80664 12.2402 8.9082 12.2402 7.70508C12.2402 6.91992 12.1797 6.26367 12.0586 5.73633C11.9375 5.20508 11.7422 4.80664 11.4727 4.54102C11.2031 4.27148 10.8438 4.13672 10.3945 4.13672C9.94531 4.13672 9.58594 4.27148 9.31641 4.54102C9.04688 4.80664 8.85156 5.20508 8.73047 5.73633C8.61328 6.26367 8.55469 6.91992 8.55469 7.70508Z" fill="#232323"/>
<path d="M0.462891 55V54.1855L2.75391 51.8594C3.17969 51.4297 3.53711 51.0469 3.82617 50.7109C4.11914 50.375 4.3418 50.0449 4.49414 49.7207C4.64648 49.3926 4.72266 49.0332 4.72266 48.6426C4.72266 48.1582 4.57812 47.7891 4.28906 47.5352C4.00391 47.2773 3.62891 47.1484 3.16406 47.1484C2.75 47.1484 2.38281 47.2188 2.0625 47.3594C1.74609 47.5 1.42383 47.6992 1.0957 47.957L0.574219 47.3008C0.800781 47.1094 1.04688 46.9395 1.3125 46.791C1.57812 46.6426 1.86523 46.5254 2.17383 46.4395C2.48242 46.3535 2.8125 46.3105 3.16406 46.3105C3.6875 46.3105 4.14062 46.4023 4.52344 46.5859C4.90625 46.7695 5.20117 47.0312 5.4082 47.3711C5.61523 47.7109 5.71875 48.1152 5.71875 48.584C5.71875 49.0371 5.62891 49.459 5.44922 49.8496C5.26953 50.2363 5.01758 50.6211 4.69336 51.0039C4.37305 51.3828 3.99414 51.7852 3.55664 52.2109L1.69336 54.0684V54.1094H6.07031V55H0.462891ZM12.9434 50.7051C12.9434 51.4004 12.8906 52.0215 12.7852 52.5684C12.6797 53.1152 12.5137 53.5781 12.2871 53.957C12.0605 54.3359 11.7676 54.625 11.4082 54.8242C11.0488 55.0195 10.6172 55.1172 10.1133 55.1172C9.63281 55.1172 9.21484 55.0195 8.85938 54.8242C8.50781 54.625 8.21484 54.3379 7.98047 53.9629C7.75 53.584 7.57812 53.1211 7.46484 52.5742C7.35156 52.0273 7.29492 51.4043 7.29492 50.7051C7.29492 49.7871 7.38672 49 7.57031 48.3438C7.75781 47.6875 8.05664 47.1836 8.4668 46.832C8.88086 46.4766 9.42969 46.2988 10.1133 46.2988C10.7617 46.2988 11.293 46.4746 11.707 46.8262C12.125 47.1738 12.4355 47.6777 12.6387 48.3379C12.8418 48.9941 12.9434 49.7832 12.9434 50.7051ZM8.27344 50.7051C8.27344 51.9043 8.41406 52.8008 8.69531 53.3945C8.98047 53.9883 9.45312 54.2852 10.1133 54.2852C10.7734 54.2852 11.2461 53.9902 11.5312 53.4004C11.8164 52.8066 11.959 51.9082 11.959 50.7051C11.959 49.9199 11.8984 49.2637 11.7773 48.7363C11.6562 48.2051 11.4609 47.8066 11.1914 47.541C10.9219 47.2715 10.5625 47.1367 10.1133 47.1367C9.66406 47.1367 9.30469 47.2715 9.03516 47.541C8.76562 47.8066 8.57031 48.2051 8.44922 48.7363C8.33203 49.2637 8.27344 49.9199 8.27344 50.7051Z" fill="#232323"/>
<path d="M6.32227 96.7051C6.32227 97.4004 6.26953 98.0215 6.16406 98.5684C6.05859 99.1152 5.89258 99.5781 5.66602 99.957C5.43945 100.336 5.14648 100.625 4.78711 100.824C4.42773 101.02 3.99609 101.117 3.49219 101.117C3.01172 101.117 2.59375 101.02 2.23828 100.824C1.88672 100.625 1.59375 100.338 1.35938 99.9629C1.12891 99.584 0.957031 99.1211 0.84375 98.5742C0.730469 98.0273 0.673828 97.4043 0.673828 96.7051C0.673828 95.7871 0.765625 95 0.949219 94.3438C1.13672 93.6875 1.43555 93.1836 1.8457 92.832C2.25977 92.4766 2.80859 92.2988 3.49219 92.2988C4.14062 92.2988 4.67188 92.4746 5.08594 92.8262C5.50391 93.1738 5.81445 93.6777 6.01758 94.3379C6.2207 94.9941 6.32227 95.7832 6.32227 96.7051ZM1.65234 96.7051C1.65234 97.9043 1.79297 98.8008 2.07422 99.3945C2.35938 99.9883 2.83203 100.285 3.49219 100.285C4.15234 100.285 4.625 99.9902 4.91016 99.4004C5.19531 98.8066 5.33789 97.9082 5.33789 96.7051C5.33789 95.9199 5.27734 95.2637 5.15625 94.7363C5.03516 94.2051 4.83984 93.8066 4.57031 93.541C4.30078 93.2715 3.94141 93.1367 3.49219 93.1367C3.04297 93.1367 2.68359 93.2715 2.41406 93.541C2.14453 93.8066 1.94922 94.2051 1.82812 94.7363C1.71094 95.2637 1.65234 95.9199 1.65234 96.7051Z" fill="#232323"/>
<line opacity="0.1" y1="111.5" x2="438" y2="111.5" stroke="#232323"/>
<line opacity="0.1" y1="22.5" x2="438" y2="22.5" stroke="#232323"/>
<line opacity="0.1" y1="65.5" x2="438" y2="65.5" stroke="#232323"/>
<rect x="15.7193" y="93.2841" width="11" height="18.9886" fill="#00AEEF"/>
<rect x="36.7193" y="71.9219" width="11" height="40.3509" fill="#00AEEF"/>
<rect x="57.7193" y="63.2188" width="11" height="49.054" fill="#00AEEF"/>
<rect x="78.7193" y="45.8125" width="11" height="66.4602" fill="#00AEEF"/>
<rect x="99.7193" y="51.3509" width="11" height="60.9219" fill="#00AEEF"/>
<rect x="120.719" y="66.3835" width="11" height="45.8892" fill="#00AEEF"/>
<rect x="141.719" y="77.4602" width="11" height="34.8125" fill="#00AEEF"/>
<rect x="162.719" y="71.9219" width="11" height="40.3509" fill="#00AEEF"/>
<rect x="183.719" y="51.3509" width="11" height="60.9219" fill="#00AEEF"/>
<rect x="204.719" y="38.6918" width="11" height="73.581" fill="#00AEEF"/>
<rect x="225.719" y="45.8125" width="11" height="66.4602" fill="#00AEEF"/>
<rect x="246.719" y="33.9446" width="11" height="78.3281" fill="#00AEEF"/>
<rect x="267.719" y="17.3295" width="11" height="94.9432" fill="#00AEEF"/>
<rect x="288.719" y="56.8892" width="11" height="55.3835" fill="#00AEEF"/>
<rect x="309.719" y="38.6918" width="11" height="73.581" fill="#00AEEF"/>
<rect x="351.719" y="12" width="11" height="100" fill="#00AEEF"/>
<rect x="393.719" y="45.8125" width="11" height="66.4602" fill="#00AEEF"/>
<rect x="330.719" y="17.3295" width="11" height="94.9432" fill="#00AEEF"/>
<rect x="372.719" y="23.6591" width="11" height="88.6136" fill="#00AEEF"/>
<rect x="414.719" y="71.9219" width="11" height="40.3509" fill="#00AEEF"/>
<path d="M408.748 133V132.186L411.039 129.859C411.465 129.43 411.822 129.047 412.111 128.711C412.404 128.375 412.627 128.045 412.779 127.721C412.932 127.393 413.008 127.033 413.008 126.643C413.008 126.158 412.863 125.789 412.574 125.535C412.289 125.277 411.914 125.148 411.449 125.148C411.035 125.148 410.668 125.219 410.348 125.359C410.031 125.5 409.709 125.699 409.381 125.957L408.859 125.301C409.086 125.109 409.332 124.939 409.598 124.791C409.863 124.643 410.15 124.525 410.459 124.439C410.768 124.354 411.098 124.311 411.449 124.311C411.973 124.311 412.426 124.402 412.809 124.586C413.191 124.77 413.486 125.031 413.693 125.371C413.9 125.711 414.004 126.115 414.004 126.584C414.004 127.037 413.914 127.459 413.734 127.85C413.555 128.236 413.303 128.621 412.979 129.004C412.658 129.383 412.279 129.785 411.842 130.211L409.979 132.068V132.109H414.355V133H408.748ZM421.229 128.705C421.229 129.4 421.176 130.021 421.07 130.568C420.965 131.115 420.799 131.578 420.572 131.957C420.346 132.336 420.053 132.625 419.693 132.824C419.334 133.02 418.902 133.117 418.398 133.117C417.918 133.117 417.5 133.02 417.145 132.824C416.793 132.625 416.5 132.338 416.266 131.963C416.035 131.584 415.863 131.121 415.75 130.574C415.637 130.027 415.58 129.404 415.58 128.705C415.58 127.787 415.672 127 415.855 126.344C416.043 125.688 416.342 125.184 416.752 124.832C417.166 124.477 417.715 124.299 418.398 124.299C419.047 124.299 419.578 124.475 419.992 124.826C420.41 125.174 420.721 125.678 420.924 126.338C421.127 126.994 421.229 127.783 421.229 128.705ZM416.559 128.705C416.559 129.904 416.699 130.801 416.98 131.395C417.266 131.988 417.738 132.285 418.398 132.285C419.059 132.285 419.531 131.99 419.816 131.4C420.102 130.807 420.244 129.908 420.244 128.705C420.244 127.92 420.184 127.264 420.062 126.736C419.941 126.205 419.746 125.807 419.477 125.541C419.207 125.271 418.848 125.137 418.398 125.137C417.949 125.137 417.59 125.271 417.32 125.541C417.051 125.807 416.855 126.205 416.734 126.736C416.617 127.264 416.559 127.92 416.559 128.705ZM422.365 133V132.186L424.656 129.859C425.082 129.43 425.439 129.047 425.729 128.711C426.021 128.375 426.244 128.045 426.396 127.721C426.549 127.393 426.625 127.033 426.625 126.643C426.625 126.158 426.48 125.789 426.191 125.535C425.906 125.277 425.531 125.148 425.066 125.148C424.652 125.148 424.285 125.219 423.965 125.359C423.648 125.5 423.326 125.699 422.998 125.957L422.477 125.301C422.703 125.109 422.949 124.939 423.215 124.791C423.48 124.643 423.768 124.525 424.076 124.439C424.385 124.354 424.715 124.311 425.066 124.311C425.59 124.311 426.043 124.402 426.426 124.586C426.809 124.77 427.104 125.031 427.311 125.371C427.518 125.711 427.621 126.115 427.621 126.584C427.621 127.037 427.531 127.459 427.352 127.85C427.172 128.236 426.92 128.621 426.596 129.004C426.275 129.383 425.896 129.785 425.459 130.211L423.596 132.068V132.109H427.973V133H422.365ZM430.996 133V126.93C430.996 126.699 430.998 126.502 431.002 126.338C431.006 126.17 431.01 126.018 431.014 125.881C431.021 125.74 431.031 125.598 431.043 125.453C430.922 125.578 430.807 125.686 430.697 125.775C430.592 125.861 430.461 125.969 430.305 126.098L429.332 126.883L428.822 126.221L431.137 124.434H431.951V133H430.996Z" fill="#232323"/>
<path d="M7.56055 133V132.186L9.85156 129.859C10.2773 129.43 10.6348 129.047 10.9238 128.711C11.2168 128.375 11.4395 128.045 11.5918 127.721C11.7441 127.393 11.8203 127.033 11.8203 126.643C11.8203 126.158 11.6758 125.789 11.3867 125.535C11.1016 125.277 10.7266 125.148 10.2617 125.148C9.84766 125.148 9.48047 125.219 9.16016 125.359C8.84375 125.5 8.52148 125.699 8.19336 125.957L7.67188 125.301C7.89844 125.109 8.14453 124.939 8.41016 124.791C8.67578 124.643 8.96289 124.525 9.27148 124.439C9.58008 124.354 9.91016 124.311 10.2617 124.311C10.7852 124.311 11.2383 124.402 11.6211 124.586C12.0039 124.77 12.2988 125.031 12.5059 125.371C12.7129 125.711 12.8164 126.115 12.8164 126.584C12.8164 127.037 12.7266 127.459 12.5469 127.85C12.3672 128.236 12.1152 128.621 11.791 129.004C11.4707 129.383 11.0918 129.785 10.6543 130.211L8.79102 132.068V132.109H13.168V133H7.56055ZM20.041 128.705C20.041 129.4 19.9883 130.021 19.8828 130.568C19.7773 131.115 19.6113 131.578 19.3848 131.957C19.1582 132.336 18.8652 132.625 18.5059 132.824C18.1465 133.02 17.7148 133.117 17.2109 133.117C16.7305 133.117 16.3125 133.02 15.957 132.824C15.6055 132.625 15.3125 132.338 15.0781 131.963C14.8477 131.584 14.6758 131.121 14.5625 130.574C14.4492 130.027 14.3926 129.404 14.3926 128.705C14.3926 127.787 14.4844 127 14.668 126.344C14.8555 125.688 15.1543 125.184 15.5645 124.832C15.9785 124.477 16.5273 124.299 17.2109 124.299C17.8594 124.299 18.3906 124.475 18.8047 124.826C19.2227 125.174 19.5332 125.678 19.7363 126.338C19.9395 126.994 20.041 127.783 20.041 128.705ZM15.3711 128.705C15.3711 129.904 15.5117 130.801 15.793 131.395C16.0781 131.988 16.5508 132.285 17.2109 132.285C17.8711 132.285 18.3438 131.99 18.6289 131.4C18.9141 130.807 19.0566 129.908 19.0566 128.705C19.0566 127.92 18.9961 127.264 18.875 126.736C18.7539 126.205 18.5586 125.807 18.2891 125.541C18.0195 125.271 17.6602 125.137 17.2109 125.137C16.7617 125.137 16.4023 125.271 16.1328 125.541C15.8633 125.807 15.668 126.205 15.5469 126.736C15.4297 127.264 15.3711 127.92 15.3711 128.705ZM27.0371 128.705C27.0371 129.4 26.9844 130.021 26.8789 130.568C26.7734 131.115 26.6074 131.578 26.3809 131.957C26.1543 132.336 25.8613 132.625 25.502 132.824C25.1426 133.02 24.7109 133.117 24.207 133.117C23.7266 133.117 23.3086 133.02 22.9531 132.824C22.6016 132.625 22.3086 132.338 22.0742 131.963C21.8438 131.584 21.6719 131.121 21.5586 130.574C21.4453 130.027 21.3887 129.404 21.3887 128.705C21.3887 127.787 21.4805 127 21.6641 126.344C21.8516 125.688 22.1504 125.184 22.5605 124.832C22.9746 124.477 23.5234 124.299 24.207 124.299C24.8555 124.299 25.3867 124.475 25.8008 124.826C26.2188 125.174 26.5293 125.678 26.7324 126.338C26.9355 126.994 27.0371 127.783 27.0371 128.705ZM22.3672 128.705C22.3672 129.904 22.5078 130.801 22.7891 131.395C23.0742 131.988 23.5469 132.285 24.207 132.285C24.8672 132.285 25.3398 131.99 25.625 131.4C25.9102 130.807 26.0527 129.908 26.0527 128.705C26.0527 127.92 25.9922 127.264 25.8711 126.736C25.75 126.205 25.5547 125.807 25.2852 125.541C25.0156 125.271 24.6562 125.137 24.207 125.137C23.7578 125.137 23.3984 125.271 23.1289 125.541C22.8594 125.807 22.6641 126.205 22.543 126.736C22.4258 127.264 22.3672 127.92 22.3672 128.705ZM30.1836 133V126.93C30.1836 126.699 30.1855 126.502 30.1895 126.338C30.1934 126.17 30.1973 126.018 30.2012 125.881C30.209 125.74 30.2188 125.598 30.2305 125.453C30.1094 125.578 29.9941 125.686 29.8848 125.775C29.7793 125.861 29.6484 125.969 29.4922 126.098L28.5195 126.883L28.0098 126.221L30.3242 124.434H31.1387V133H30.1836Z" fill="#232323"/>
<path d="M323.637 133V132.186L325.928 129.859C326.354 129.43 326.711 129.047 327 128.711C327.293 128.375 327.516 128.045 327.668 127.721C327.82 127.393 327.896 127.033 327.896 126.643C327.896 126.158 327.752 125.789 327.463 125.535C327.178 125.277 326.803 125.148 326.338 125.148C325.924 125.148 325.557 125.219 325.236 125.359C324.92 125.5 324.598 125.699 324.27 125.957L323.748 125.301C323.975 125.109 324.221 124.939 324.486 124.791C324.752 124.643 325.039 124.525 325.348 124.439C325.656 124.354 325.986 124.311 326.338 124.311C326.861 124.311 327.314 124.402 327.697 124.586C328.08 124.77 328.375 125.031 328.582 125.371C328.789 125.711 328.893 126.115 328.893 126.584C328.893 127.037 328.803 127.459 328.623 127.85C328.443 128.236 328.191 128.621 327.867 129.004C327.547 129.383 327.168 129.785 326.73 130.211L324.867 132.068V132.109H329.244V133H323.637ZM336.117 128.705C336.117 129.4 336.064 130.021 335.959 130.568C335.854 131.115 335.688 131.578 335.461 131.957C335.234 132.336 334.941 132.625 334.582 132.824C334.223 133.02 333.791 133.117 333.287 133.117C332.807 133.117 332.389 133.02 332.033 132.824C331.682 132.625 331.389 132.338 331.154 131.963C330.924 131.584 330.752 131.121 330.639 130.574C330.525 130.027 330.469 129.404 330.469 128.705C330.469 127.787 330.561 127 330.744 126.344C330.932 125.688 331.23 125.184 331.641 124.832C332.055 124.477 332.604 124.299 333.287 124.299C333.936 124.299 334.467 124.475 334.881 124.826C335.299 125.174 335.609 125.678 335.812 126.338C336.016 126.994 336.117 127.783 336.117 128.705ZM331.447 128.705C331.447 129.904 331.588 130.801 331.869 131.395C332.154 131.988 332.627 132.285 333.287 132.285C333.947 132.285 334.42 131.99 334.705 131.4C334.99 130.807 335.133 129.908 335.133 128.705C335.133 127.92 335.072 127.264 334.951 126.736C334.83 126.205 334.635 125.807 334.365 125.541C334.096 125.271 333.736 125.137 333.287 125.137C332.838 125.137 332.479 125.271 332.209 125.541C331.939 125.807 331.744 126.205 331.623 126.736C331.506 127.264 331.447 127.92 331.447 128.705ZM339.264 133V126.93C339.264 126.699 339.266 126.502 339.27 126.338C339.273 126.17 339.277 126.018 339.281 125.881C339.289 125.74 339.299 125.598 339.311 125.453C339.189 125.578 339.074 125.686 338.965 125.775C338.859 125.861 338.729 125.969 338.572 126.098L337.6 126.883L337.09 126.221L339.404 124.434H340.219V133H339.264ZM342.656 129.338C342.656 128.822 342.691 128.318 342.762 127.826C342.836 127.334 342.959 126.877 343.131 126.455C343.303 126.029 343.535 125.656 343.828 125.336C344.125 125.016 344.494 124.766 344.936 124.586C345.381 124.402 345.914 124.311 346.535 124.311C346.715 124.311 346.904 124.32 347.104 124.34C347.307 124.355 347.475 124.383 347.607 124.422V125.26C347.463 125.209 347.299 125.172 347.115 125.148C346.932 125.125 346.746 125.113 346.559 125.113C345.836 125.113 345.266 125.271 344.848 125.588C344.43 125.9 344.127 126.328 343.939 126.871C343.756 127.41 343.65 128.02 343.623 128.699H343.693C343.814 128.504 343.969 128.328 344.156 128.172C344.344 128.012 344.57 127.885 344.836 127.791C345.105 127.697 345.418 127.65 345.773 127.65C346.273 127.65 346.709 127.752 347.08 127.955C347.455 128.158 347.744 128.453 347.947 128.84C348.154 129.227 348.258 129.695 348.258 130.246C348.258 130.836 348.146 131.346 347.924 131.775C347.705 132.205 347.393 132.537 346.986 132.771C346.584 133.002 346.105 133.117 345.551 133.117C345.133 133.117 344.746 133.037 344.391 132.877C344.039 132.717 343.732 132.479 343.471 132.162C343.213 131.846 343.012 131.453 342.867 130.984C342.727 130.512 342.656 129.963 342.656 129.338ZM345.539 132.297C346.066 132.297 346.49 132.127 346.811 131.787C347.131 131.447 347.291 130.934 347.291 130.246C347.291 129.684 347.148 129.24 346.863 128.916C346.578 128.588 346.15 128.422 345.58 128.418C345.189 128.414 344.85 128.494 344.561 128.658C344.271 128.818 344.047 129.023 343.887 129.273C343.727 129.52 343.646 129.77 343.646 130.023C343.646 130.281 343.684 130.543 343.758 130.809C343.836 131.074 343.951 131.32 344.104 131.547C344.26 131.773 344.457 131.955 344.695 132.092C344.934 132.229 345.215 132.297 345.539 132.297Z" fill="#232323"/>
<path d="M112.734 133V132.186L115.025 129.859C115.451 129.43 115.809 129.047 116.098 128.711C116.391 128.375 116.613 128.045 116.766 127.721C116.918 127.393 116.994 127.033 116.994 126.643C116.994 126.158 116.85 125.789 116.561 125.535C116.275 125.277 115.9 125.148 115.436 125.148C115.021 125.148 114.654 125.219 114.334 125.359C114.018 125.5 113.695 125.699 113.367 125.957L112.846 125.301C113.072 125.109 113.318 124.939 113.584 124.791C113.85 124.643 114.137 124.525 114.445 124.439C114.754 124.354 115.084 124.311 115.436 124.311C115.959 124.311 116.412 124.402 116.795 124.586C117.178 124.77 117.473 125.031 117.68 125.371C117.887 125.711 117.99 126.115 117.99 126.584C117.99 127.037 117.9 127.459 117.721 127.85C117.541 128.236 117.289 128.621 116.965 129.004C116.645 129.383 116.266 129.785 115.828 130.211L113.965 132.068V132.109H118.342V133H112.734ZM125.215 128.705C125.215 129.4 125.162 130.021 125.057 130.568C124.951 131.115 124.785 131.578 124.559 131.957C124.332 132.336 124.039 132.625 123.68 132.824C123.32 133.02 122.889 133.117 122.385 133.117C121.904 133.117 121.486 133.02 121.131 132.824C120.779 132.625 120.486 132.338 120.252 131.963C120.021 131.584 119.85 131.121 119.736 130.574C119.623 130.027 119.566 129.404 119.566 128.705C119.566 127.787 119.658 127 119.842 126.344C120.029 125.688 120.328 125.184 120.738 124.832C121.152 124.477 121.701 124.299 122.385 124.299C123.033 124.299 123.564 124.475 123.979 124.826C124.396 125.174 124.707 125.678 124.91 126.338C125.113 126.994 125.215 127.783 125.215 128.705ZM120.545 128.705C120.545 129.904 120.686 130.801 120.967 131.395C121.252 131.988 121.725 132.285 122.385 132.285C123.045 132.285 123.518 131.99 123.803 131.4C124.088 130.807 124.23 129.908 124.23 128.705C124.23 127.92 124.17 127.264 124.049 126.736C123.928 126.205 123.732 125.807 123.463 125.541C123.193 125.271 122.834 125.137 122.385 125.137C121.936 125.137 121.576 125.271 121.307 125.541C121.037 125.807 120.842 126.205 120.721 126.736C120.604 127.264 120.545 127.92 120.545 128.705ZM132.211 128.705C132.211 129.4 132.158 130.021 132.053 130.568C131.947 131.115 131.781 131.578 131.555 131.957C131.328 132.336 131.035 132.625 130.676 132.824C130.316 133.02 129.885 133.117 129.381 133.117C128.9 133.117 128.482 133.02 128.127 132.824C127.775 132.625 127.482 132.338 127.248 131.963C127.018 131.584 126.846 131.121 126.732 130.574C126.619 130.027 126.562 129.404 126.562 128.705C126.562 127.787 126.654 127 126.838 126.344C127.025 125.688 127.324 125.184 127.734 124.832C128.148 124.477 128.697 124.299 129.381 124.299C130.029 124.299 130.561 124.475 130.975 124.826C131.393 125.174 131.703 125.678 131.906 126.338C132.109 126.994 132.211 127.783 132.211 128.705ZM127.541 128.705C127.541 129.904 127.682 130.801 127.963 131.395C128.248 131.988 128.721 132.285 129.381 132.285C130.041 132.285 130.514 131.99 130.799 131.4C131.084 130.807 131.227 129.908 131.227 128.705C131.227 127.92 131.166 127.264 131.045 126.736C130.924 126.205 130.729 125.807 130.459 125.541C130.189 125.271 129.83 125.137 129.381 125.137C128.932 125.137 128.572 125.271 128.303 125.541C128.033 125.807 127.838 126.205 127.717 126.736C127.6 127.264 127.541 127.92 127.541 128.705ZM133.559 129.338C133.559 128.822 133.594 128.318 133.664 127.826C133.738 127.334 133.861 126.877 134.033 126.455C134.205 126.029 134.438 125.656 134.73 125.336C135.027 125.016 135.396 124.766 135.838 124.586C136.283 124.402 136.816 124.311 137.438 124.311C137.617 124.311 137.807 124.32 138.006 124.34C138.209 124.355 138.377 124.383 138.51 124.422V125.26C138.365 125.209 138.201 125.172 138.018 125.148C137.834 125.125 137.648 125.113 137.461 125.113C136.738 125.113 136.168 125.271 135.75 125.588C135.332 125.9 135.029 126.328 134.842 126.871C134.658 127.41 134.553 128.02 134.525 128.699H134.596C134.717 128.504 134.871 128.328 135.059 128.172C135.246 128.012 135.473 127.885 135.738 127.791C136.008 127.697 136.32 127.65 136.676 127.65C137.176 127.65 137.611 127.752 137.982 127.955C138.357 128.158 138.646 128.453 138.85 128.84C139.057 129.227 139.16 129.695 139.16 130.246C139.16 130.836 139.049 131.346 138.826 131.775C138.607 132.205 138.295 132.537 137.889 132.771C137.486 133.002 137.008 133.117 136.453 133.117C136.035 133.117 135.648 133.037 135.293 132.877C134.941 132.717 134.635 132.479 134.373 132.162C134.115 131.846 133.914 131.453 133.77 130.984C133.629 130.512 133.559 129.963 133.559 129.338ZM136.441 132.297C136.969 132.297 137.393 132.127 137.713 131.787C138.033 131.447 138.193 130.934 138.193 130.246C138.193 129.684 138.051 129.24 137.766 128.916C137.48 128.588 137.053 128.422 136.482 128.418C136.092 128.414 135.752 128.494 135.463 128.658C135.174 128.818 134.949 129.023 134.789 129.273C134.629 129.52 134.549 129.77 134.549 130.023C134.549 130.281 134.586 130.543 134.66 130.809C134.738 131.074 134.854 131.32 135.006 131.547C135.162 131.773 135.359 131.955 135.598 132.092C135.836 132.229 136.117 132.297 136.441 132.297Z" fill="#232323"/>
<path d="M220.463 133V132.186L222.754 129.859C223.18 129.43 223.537 129.047 223.826 128.711C224.119 128.375 224.342 128.045 224.494 127.721C224.646 127.393 224.723 127.033 224.723 126.643C224.723 126.158 224.578 125.789 224.289 125.535C224.004 125.277 223.629 125.148 223.164 125.148C222.75 125.148 222.383 125.219 222.062 125.359C221.746 125.5 221.424 125.699 221.096 125.957L220.574 125.301C220.801 125.109 221.047 124.939 221.312 124.791C221.578 124.643 221.865 124.525 222.174 124.439C222.482 124.354 222.812 124.311 223.164 124.311C223.688 124.311 224.141 124.402 224.523 124.586C224.906 124.77 225.201 125.031 225.408 125.371C225.615 125.711 225.719 126.115 225.719 126.584C225.719 127.037 225.629 127.459 225.449 127.85C225.27 128.236 225.018 128.621 224.693 129.004C224.373 129.383 223.994 129.785 223.557 130.211L221.693 132.068V132.109H226.07V133H220.463ZM232.943 128.705C232.943 129.4 232.891 130.021 232.785 130.568C232.68 131.115 232.514 131.578 232.287 131.957C232.061 132.336 231.768 132.625 231.408 132.824C231.049 133.02 230.617 133.117 230.113 133.117C229.633 133.117 229.215 133.02 228.859 132.824C228.508 132.625 228.215 132.338 227.98 131.963C227.75 131.584 227.578 131.121 227.465 130.574C227.352 130.027 227.295 129.404 227.295 128.705C227.295 127.787 227.387 127 227.57 126.344C227.758 125.688 228.057 125.184 228.467 124.832C228.881 124.477 229.43 124.299 230.113 124.299C230.762 124.299 231.293 124.475 231.707 124.826C232.125 125.174 232.436 125.678 232.639 126.338C232.842 126.994 232.943 127.783 232.943 128.705ZM228.273 128.705C228.273 129.904 228.414 130.801 228.695 131.395C228.98 131.988 229.453 132.285 230.113 132.285C230.773 132.285 231.246 131.99 231.531 131.4C231.816 130.807 231.959 129.908 231.959 128.705C231.959 127.92 231.898 127.264 231.777 126.736C231.656 126.205 231.461 125.807 231.191 125.541C230.922 125.271 230.562 125.137 230.113 125.137C229.664 125.137 229.305 125.271 229.035 125.541C228.766 125.807 228.57 126.205 228.449 126.736C228.332 127.264 228.273 127.92 228.273 128.705ZM236.09 133V126.93C236.09 126.699 236.092 126.502 236.096 126.338C236.1 126.17 236.104 126.018 236.107 125.881C236.115 125.74 236.125 125.598 236.137 125.453C236.016 125.578 235.9 125.686 235.791 125.775C235.686 125.861 235.555 125.969 235.398 126.098L234.426 126.883L233.916 126.221L236.23 124.434H237.045V133H236.09ZM241.281 133V126.93C241.281 126.699 241.283 126.502 241.287 126.338C241.291 126.17 241.295 126.018 241.299 125.881C241.307 125.74 241.316 125.598 241.328 125.453C241.207 125.578 241.092 125.686 240.982 125.775C240.877 125.861 240.746 125.969 240.59 126.098L239.617 126.883L239.107 126.221L241.422 124.434H242.236V133H241.281Z" fill="#232323"/>
<line opacity="0.1" x1="420.798" y1="112" x2="420.798" y2="117" stroke="#232323"/>
<line opacity="0.1" x1="231.272" y1="112" x2="231.272" y2="117" stroke="#232323"/>
<line opacity="0.1" x1="336.342" y1="112" x2="336.342" y2="117" stroke="#232323"/>
<line opacity="0.1" x1="126.219" y1="112" x2="126.219" y2="117" stroke="#232323"/>
<line opacity="0.1" x1="20.1491" y1="112" x2="20.1491" y2="117" stroke="#232323"/>
</svg>
