<svg width="150" height="20" viewBox="0 0 150 20" fill="none" xmlns="http://www.w3.org/2000/svg">
<path fill-rule="evenodd" clip-rule="evenodd" d="M6.29982 1.7684e-05H9.97518L16.2113 14.9903H11.8881L10.7492 12.1173H5.32051L4.24391 14.9903H0L6.29982 1.7684e-05ZM8.07297 4.60269L6.4678 8.92937H9.64262L8.07297 4.60269ZM57.3355 6.87205C57.4698 7.39449 57.5379 7.92405 57.5379 8.44595V14.9903H53.7642V9.19005C53.7642 8.91422 53.7408 8.64676 53.6946 8.39517C53.6498 8.15337 53.5759 7.9383 53.4757 7.75673C53.3801 7.58425 53.249 7.45079 53.0757 7.34905C52.904 7.24873 52.68 7.19777 52.4104 7.19777C52.1373 7.19777 51.8963 7.25034 51.6946 7.35386C51.4927 7.4581 51.3218 7.60368 51.1878 7.78649C51.0489 7.97483 50.9434 8.19542 50.874 8.44257C50.8027 8.69398 50.7667 8.9593 50.7667 9.23139V14.9903H46.993V4.34059H50.6424V5.42573C50.7103 5.34038 50.7833 5.25574 50.8615 5.17199C51.0723 4.94713 51.3234 4.75148 51.608 4.59094C51.8883 4.43342 52.1964 4.30317 52.5241 4.20356C52.8576 4.10253 53.2164 4.05122 53.5905 4.05122C54.3064 4.05122 54.926 4.18307 55.4324 4.44304C55.9371 4.70194 56.351 5.04245 56.6631 5.45513C56.9726 5.86477 57.1988 6.34142 57.3355 6.87205ZM17.1145 14.9903V0H20.9296V14.9903H17.1145ZM39.0751 4.00981C42.2044 4.00981 44.7412 6.54198 44.7412 9.66555C44.7412 12.7891 42.2044 15.3213 39.0751 15.3213C35.9458 15.3213 33.409 12.7891 33.409 9.66555C33.409 6.54198 35.9458 4.00981 39.0751 4.00981ZM41.3376 9.66555C41.3376 8.41844 40.3245 7.40724 39.0751 7.40724C37.8255 7.40724 36.8127 8.41844 36.8127 9.66555C36.8127 10.9128 37.8255 11.9239 39.0751 11.9239C40.3245 11.9239 41.3376 10.9128 41.3376 9.66555ZM28.6195 11.9238C29.4299 11.9238 30.1386 11.497 30.5383 10.8581L32.7431 13.5424C31.7099 14.637 30.245 15.3212 28.6195 15.3212C25.4902 15.3212 22.9534 12.789 22.9534 9.66546C22.9534 6.54189 25.4902 4.00972 28.6195 4.00972C30.2577 4.00972 31.7326 4.70464 32.7672 5.81401L30.5087 8.42459C30.104 7.81217 29.4094 7.40715 28.6195 7.40715C27.3699 7.40715 26.3571 8.41835 26.3571 9.66546C26.3571 10.9128 27.3699 11.9238 28.6195 11.9238Z" fill="#003595"/>
<path d="M77.3154 8.0663C77.3154 9.65746 77.025 10.9877 76.4441 12.0571C75.8633 13.12 75.0211 13.922 73.9175 14.4632C72.8203 14.9978 71.4876 15.2652 69.9194 15.2652H66.0762V1.13798H70.3453C71.7845 1.13798 73.0236 1.4021 74.0627 1.93034C75.1017 2.45214 75.902 3.22839 76.4635 4.2591C77.0314 5.28337 77.3154 6.55244 77.3154 8.0663ZM75.5826 8.12427C75.5826 6.85521 75.3696 5.80839 74.9436 4.98382C74.5241 4.15925 73.9046 3.54727 73.0849 3.14787C72.2718 2.74203 71.2747 2.5391 70.0936 2.5391H67.7219V13.8544H69.7258C71.6748 13.8544 73.1366 13.3745 74.1111 12.4146C75.0921 11.4548 75.5826 10.0246 75.5826 8.12427Z" fill="#003595"/>
<path d="M84.1065 4.48135C85.0101 4.48135 85.7845 4.68105 86.4299 5.08045C87.0753 5.47985 87.569 6.0403 87.911 6.7618C88.2531 7.47686 88.4241 8.31431 88.4241 9.27416V10.2694H81.0959C81.1152 11.5127 81.425 12.4597 82.0252 13.1103C82.6254 13.761 83.4708 14.0863 84.5615 14.0863C85.2327 14.0863 85.8265 14.0251 86.3428 13.9027C86.8591 13.7803 87.3947 13.5999 87.9498 13.3616V14.7724C87.4141 15.0107 86.8817 15.1847 86.3524 15.2942C85.8297 15.4037 85.2101 15.4584 84.4938 15.4584C83.4741 15.4584 82.5835 15.2523 81.8219 14.84C81.0668 14.4213 80.4795 13.8093 80.06 13.0041C79.6405 12.1988 79.4308 11.2132 79.4308 10.0472C79.4308 8.90697 79.6212 7.92135 80.002 7.09034C80.3892 6.25289 80.9313 5.60869 81.6283 5.15776C82.3318 4.70682 83.1578 4.48135 84.1065 4.48135ZM84.0872 5.79551C83.2288 5.79551 82.5447 6.07573 82.0349 6.63618C81.525 7.19663 81.2217 7.97933 81.1249 8.98427H86.7397C86.7332 8.35296 86.6332 7.79896 86.4396 7.32225C86.2524 6.83911 85.9652 6.46547 85.578 6.20135C85.1908 5.93079 84.6938 5.79551 84.0872 5.79551Z" fill="#003595"/>
<path d="M95.041 4.48135C95.9445 4.48135 96.719 4.68105 97.3644 5.08045C98.0097 5.47985 98.5035 6.0403 98.8455 6.7618C99.1875 7.47686 99.3586 8.31431 99.3586 9.27416V10.2694H92.0303C92.0497 11.5127 92.3595 12.4597 92.9597 13.1103C93.5599 13.761 94.4053 14.0863 95.496 14.0863C96.1672 14.0863 96.7609 14.0251 97.2772 13.9027C97.7935 13.7803 98.3292 13.5999 98.8842 13.3616V14.7724C98.3486 15.0107 97.8161 15.1847 97.2869 15.2942C96.7642 15.4037 96.1446 15.4584 95.4282 15.4584C94.4085 15.4584 93.5179 15.2523 92.7564 14.84C92.0013 14.4213 91.414 13.8093 90.9945 13.0041C90.575 12.1988 90.3653 11.2132 90.3653 10.0472C90.3653 8.90697 90.5557 7.92135 90.9364 7.09034C91.3236 6.25289 91.8658 5.60869 92.5628 5.15776C93.2662 4.70682 94.0923 4.48135 95.041 4.48135ZM95.0217 5.79551C94.1633 5.79551 93.4792 6.07573 92.9694 6.63618C92.4595 7.19663 92.1562 7.97933 92.0594 8.98427H97.6741C97.6677 8.35296 97.5677 7.79896 97.374 7.32225C97.1869 6.83911 96.8997 6.46547 96.5125 6.20135C96.1252 5.93079 95.6283 5.79551 95.0217 5.79551Z" fill="#003595"/>
<path d="M106.876 4.48135C108.199 4.48135 109.254 4.93551 110.041 5.84382C110.829 6.75214 111.222 8.11783 111.222 9.9409C111.222 11.1455 111.042 12.1569 110.68 12.9751C110.319 13.7932 109.809 14.4116 109.151 14.8303C108.499 15.2491 107.728 15.4584 106.837 15.4584C106.276 15.4584 105.782 15.3844 105.356 15.2362C104.93 15.088 104.565 14.8883 104.262 14.6371C103.959 14.3858 103.707 14.1121 103.507 13.8157H103.391C103.41 14.067 103.433 14.3697 103.459 14.7241C103.491 15.0784 103.507 15.3876 103.507 15.6517V20H101.89V4.67461H103.216L103.429 6.24H103.507C103.713 5.91791 103.965 5.6248 104.262 5.36068C104.559 5.09012 104.92 4.87753 105.346 4.72292C105.779 4.56188 106.288 4.48135 106.876 4.48135ZM106.595 5.83416C105.859 5.83416 105.266 5.97588 104.814 6.25933C104.368 6.54278 104.043 6.96794 103.836 7.53484C103.63 8.09529 103.52 8.80068 103.507 9.65102V9.96023C103.507 10.8557 103.604 11.6126 103.797 12.231C103.997 12.8494 104.323 13.3197 104.775 13.6418C105.233 13.9639 105.846 14.125 106.614 14.125C107.273 14.125 107.821 13.9478 108.26 13.5935C108.699 13.2392 109.025 12.7464 109.238 12.1151C109.457 11.4773 109.567 10.7461 109.567 9.92158C109.567 8.67184 109.322 7.67978 108.831 6.9454C108.347 6.20457 107.602 5.83416 106.595 5.83416Z" fill="#003595"/>
<path d="M124.646 15.2652L122.904 10.7816H117.231L115.498 15.2652H113.833L119.37 1.08H120.851L126.35 15.2652H124.646ZM122.41 9.32248L120.754 4.86787C120.716 4.75191 120.651 4.56188 120.561 4.29776C120.477 4.03364 120.39 3.75985 120.299 3.47641C120.209 3.19296 120.135 2.96427 120.077 2.79034C120.012 3.05446 119.941 3.31858 119.864 3.5827C119.793 3.84038 119.722 4.08195 119.651 4.30742C119.58 4.52645 119.519 4.71326 119.467 4.86787L117.783 9.32248H122.41Z" fill="#003595"/>
<path d="M138.32 15.2652H136.374L131.273 8.39484L129.763 9.74765V15.2652H128.117V1.13798H129.763V8.18225C130.13 7.76353 130.508 7.34802 130.895 6.93573C131.282 6.51701 131.666 6.09506 132.047 5.66989L136.181 1.13798H138.107L132.473 7.26427L138.32 15.2652Z" fill="#003595"/>
<path d="M146.108 2.3845C145.328 2.3845 144.624 2.51978 143.998 2.79034C143.379 3.05446 142.849 3.44098 142.41 3.94989C141.978 4.45236 141.646 5.06113 141.413 5.77618C141.181 6.49124 141.065 7.29648 141.065 8.19191C141.065 9.37723 141.249 10.4079 141.617 11.284C141.991 12.1537 142.546 12.8269 143.282 13.3036C144.024 13.7803 144.95 14.0187 146.06 14.0187C146.693 14.0187 147.286 13.9671 147.841 13.8641C148.403 13.7545 148.948 13.6193 149.477 13.4582V14.8883C148.961 15.0816 148.419 15.2233 147.851 15.3135C147.283 15.4101 146.609 15.4584 145.828 15.4584C144.389 15.4584 143.185 15.1621 142.217 14.5694C141.255 13.9703 140.532 13.1264 140.048 12.0378C139.571 10.9491 139.332 9.6639 139.332 8.18225C139.332 7.11289 139.48 6.13693 139.777 5.25439C140.081 4.3654 140.519 3.5988 141.094 2.95461C141.675 2.31041 142.385 1.81438 143.224 1.46652C144.069 1.11221 145.037 0.935059 146.128 0.935059C146.844 0.935059 147.535 1.00592 148.199 1.14764C148.864 1.28937 149.464 1.49229 150 1.75641L149.342 3.14787C148.89 2.94173 148.393 2.76457 147.851 2.61641C147.315 2.4618 146.734 2.3845 146.108 2.3845Z" fill="#003595"/>
</svg>
