<svg width="16" height="16" viewBox="0 0 16 16" fill="none" xmlns="http://www.w3.org/2000/svg">
<path d="M7.99998 9.66667C9.10665 9.66667 9.99998 8.77334 9.99998 7.66667V3.66667C9.99998 2.56001 9.10665 1.66667 7.99998 1.66667C6.89331 1.66667 5.99998 2.56001 5.99998 3.66667V7.66667C5.99998 8.77334 6.89331 9.66667 7.99998 9.66667Z" fill="#818181"/>
<path d="M11.3333 7.66667C11.3333 9.50667 9.83998 11 7.99998 11C6.15998 11 4.66665 9.50667 4.66665 7.66667H3.33331C3.33331 10.02 5.07331 11.9533 7.33331 12.28V14.3333H8.66665V12.28C10.9266 11.9533 12.6666 10.02 12.6666 7.66667H11.3333Z" fill="#818181"/>
</svg>
